<svg xmlns="http://www.w3.org/2000/svg" viewBox="0 0 512 512">
  <defs>
    <linearGradient id="bg" x1="0%" y1="0%" x2="100%" y2="100%">
      <stop offset="0%" style="stop-color:#0a0a0f"/>
      <stop offset="100%" style="stop-color:#111118"/>
    </linearGradient>
    <linearGradient id="g1" x1="0%" y1="0%" x2="100%" y2="100%">
      <stop offset="0%" style="stop-color:#00e5ff"/>
      <stop offset="100%" style="stop-color:#7c4dff"/>
    </linearGradient>
  </defs>
  <rect width="512" height="512" rx="96" fill="url(#bg)"/>
  <g stroke="#00e5ff" stroke-width="0.8" opacity="0.05">
    <line x1="0" y1="64" x2="512" y2="64"/><line x1="0" y1="128" x2="512" y2="128"/>
    <line x1="0" y1="192" x2="512" y2="192"/><line x1="0" y1="256" x2="512" y2="256"/>
    <line x1="0" y1="320" x2="512" y2="320"/><line x1="0" y1="384" x2="512" y2="384"/>
    <line x1="0" y1="448" x2="512" y2="448"/>
    <line x1="64" y1="0" x2="64" y2="512"/><line x1="128" y1="0" x2="128" y2="512"/>
    <line x1="192" y1="0" x2="192" y2="512"/><line x1="256" y1="0" x2="256" y2="512"/>
    <line x1="320" y1="0" x2="320" y2="512"/><line x1="384" y1="0" x2="384" y2="512"/>
    <line x1="448" y1="0" x2="448" y2="512"/>
  </g>
  <polygon points="256,80 400,160 400,320 256,400 112,320 112,160" fill="url(#g1)" opacity="0.1"/>
  <polygon points="256,100 384,172 384,228 256,156 128,228 128,172" fill="#00e5ff" opacity="0.12"/>
  <polygon points="256,156 384,228 384,308 256,380 128,308 128,228" fill="#7c4dff" opacity="0.1"/>
  <g stroke="url(#g1)" stroke-width="5" fill="none" stroke-linecap="round" stroke-linejoin="round">
    <polygon points="256,120 380,188 380,324 256,392 132,324 132,188"/>
    <line x1="256" y1="120" x2="256" y2="256"/>
    <line x1="132" y1="188" x2="256" y2="256"/>
    <line x1="380" y1="188" x2="256" y2="256"/>
    <line x1="256" y1="256" x2="256" y2="392"/>
    <line x1="132" y1="188" x2="132" y2="324"/>
    <line x1="380" y1="188" x2="380" y2="324"/>
  </g>
  <g fill="#00e5ff" opacity="0.95">
    <circle cx="256" cy="120" r="6"/><circle cx="380" cy="188" r="6"/>
    <circle cx="132" cy="188" r="6"/><circle cx="256" cy="256" r="6"/>
    <circle cx="380" cy="324" r="6"/><circle cx="132" cy="324" r="6"/>
    <circle cx="256" cy="392" r="6"/>
  </g>
  <text x="256" y="458" text-anchor="middle" font-family="monospace" font-size="28" font-weight="bold" fill="#00e5ff" opacity="0.75" letter-spacing="6">3D ANALYZER</text>
</svg>
